<svg width="95" height="17" viewBox="0 0 95 17" fill="none" xmlns="http://www.w3.org/2000/svg">
<path d="M4.41949 4.65272C2.81458 5.92751 2.6513 7.98592 2.77115 8.85492C1.59525 7.00722 1.49972 4.79204 1.59872 3.91609C2.85453 1.78104 5.57805 0.795355 6.78346 0.570704C11.5496 0.0134296 14.1463 2.88688 14.848 4.40197C11.7493 3.03316 9.33155 3.26129 8.51174 3.5469C8.23268 3.06554 7.79092 2.70027 7.26649 2.51723C6.74206 2.33418 6.16959 2.34547 5.65271 2.54903C4.3344 3.11501 4.2823 4.18776 4.41949 4.65272Z" fill="#35C9EC"/>
<path d="M6.55263 13.5866C8.46327 14.3268 10.3131 13.423 10.9992 12.8779C10.0092 14.8318 8.1541 16.0387 7.35164 16.3974C4.87998 16.3974 2.65148 14.5427 1.84554 13.611C-1.0534 9.77977 0.099924 6.07562 1.03787 4.70508C1.43215 8.08184 2.85644 10.0532 3.51647 10.6174C3.24471 11.103 3.15538 11.6702 3.26466 12.2161C3.37395 12.7621 3.67463 13.2508 4.11223 13.5936C5.276 14.4417 6.22262 13.9419 6.55263 13.5866Z" fill="#2CD382"/>
<path d="M13.0906 7.25984C12.7745 5.23273 11.0671 4.07639 10.2542 3.75248C12.4376 3.6358 14.4072 4.6441 15.1177 5.16135C16.3543 7.30858 15.868 10.1699 15.465 11.3331C13.6013 15.767 9.82871 16.6168 8.16992 16.4879C10.8847 14.4591 11.8765 12.237 12.0329 11.3802C12.591 11.3772 13.1293 11.1728 13.5494 10.8044C13.9695 10.436 14.2432 9.92818 14.3204 9.37397C14.468 7.94772 13.5614 7.36778 13.0906 7.25984Z" fill="url(#paint0_linear_4445_35894)"/>
<path d="M6.44898 6.14668C7.40344 6.14668 8.17722 5.37093 8.17722 4.41392C8.17722 3.45694 7.40344 2.68115 6.44898 2.68115C5.49448 2.68115 4.7207 3.45694 4.7207 4.41392C4.7207 5.37093 5.49448 6.14668 6.44898 6.14668Z" fill="#35C9EC"/>
<path d="M12.2888 10.8855C13.2433 10.8855 14.0171 10.1097 14.0171 9.15267C14.0171 8.19571 13.2433 7.41992 12.2888 7.41992C11.3343 7.41992 10.5605 8.19571 10.5605 9.15267C10.5605 10.1097 11.3343 10.8855 12.2888 10.8855Z" fill="url(#paint1_linear_4445_35894)"/>
<path d="M5.33565 13.6738C6.29015 13.6738 7.06393 12.898 7.06393 11.941C7.06393 10.984 6.29015 10.2083 5.33565 10.2083C4.38119 10.2083 3.60742 10.984 3.60742 11.941C3.60742 12.898 4.38119 13.6738 5.33565 13.6738Z" fill="#2CD382"/>
<path d="M24.6256 4.5813H22.992L19.9072 13.2252H21.3819L21.9993 11.4619H25.6182L26.2384 13.2252H27.7026L24.6256 4.5813ZM22.398 10.3073L23.8101 6.2949L25.2092 10.3073H22.398Z" fill="black"/>
<path d="M29.0547 13.2251H30.4669V10.2812L32.9941 13.2251H34.9013L31.7539 9.80835L34.9013 6.38115H32.9446L30.4669 9.37475V4.03271H29.0547V13.2251Z" fill="black"/>
<path d="M37.3242 9.62277C37.3242 8.1704 37.9704 7.73674 39.01 7.73674H39.3695V6.26868C38.9599 6.24634 38.552 6.33791 38.1911 6.53341C37.8302 6.72886 37.5302 7.02055 37.3242 7.37625V6.38098H35.9121V13.225H37.3242V9.62277Z" fill="black"/>
<path d="M42.082 6.3811H40.6699V13.2252H42.082V6.3811Z" fill="black"/>
<path d="M41.3856 5.47448C41.5644 5.47448 41.7392 5.42131 41.8879 5.32174C42.0366 5.22211 42.1524 5.08057 42.2209 4.91491C42.2893 4.74931 42.3072 4.56703 42.2723 4.39122C42.2374 4.2154 42.1513 4.05386 42.0249 3.9271C41.8985 3.80033 41.7374 3.71399 41.562 3.67903C41.3866 3.64408 41.2049 3.66199 41.0396 3.7306C40.8745 3.79922 40.7332 3.9154 40.6339 4.06445C40.5345 4.2135 40.4815 4.38876 40.4815 4.56808C40.4798 4.68759 40.502 4.80623 40.5468 4.917C40.5916 5.02777 40.6581 5.12839 40.7424 5.21294C40.8267 5.29743 40.9271 5.36414 41.0375 5.40907C41.1481 5.45399 41.2664 5.47627 41.3856 5.47448Z" fill="black"/>
<path d="M43.1289 6.3811L45.7187 13.2252H47.4044L50.0046 6.3811H48.5064L46.5732 11.9582L44.64 6.3811H43.1289Z" fill="black"/>
<path d="M52.4854 6.3811H51.0732V13.2252H52.4854V6.3811Z" fill="black"/>
<path d="M51.7916 5.47449C51.9703 5.47399 52.1448 5.42039 52.2931 5.32045C52.4415 5.22058 52.5569 5.07879 52.625 4.91313C52.693 4.74747 52.7105 4.56525 52.6753 4.38962C52.6402 4.21399 52.5538 4.0527 52.4273 3.92618C52.3008 3.79965 52.1397 3.71362 51.9644 3.67885C51.7891 3.64409 51.6074 3.66218 51.4424 3.73085C51.2773 3.79953 51.1363 3.91572 51.037 4.06476C50.9378 4.21375 50.8849 4.38889 50.8849 4.56809C50.8831 4.68778 50.9054 4.80667 50.9503 4.91762C50.9953 5.02858 51.0621 5.12932 51.1467 5.21387C51.2313 5.29842 51.3319 5.36507 51.4427 5.40987C51.5535 5.45461 51.6721 5.47664 51.7916 5.47449Z" fill="black"/>
<path d="M59.454 6.38098V7.37624C59.1734 7.0192 58.8134 6.73298 58.4029 6.54068C57.9919 6.34831 57.542 6.25514 57.0885 6.26861C55.2909 6.26861 53.8682 7.66098 53.8682 9.77163C53.8682 11.8823 55.2909 13.3374 57.0651 13.3374C57.5242 13.3495 57.9789 13.2535 58.3943 13.057C58.8091 12.8606 59.1722 12.5692 59.454 12.2063V13.225H60.8792V6.38098H59.454ZM57.3857 12.1122C56.3432 12.1122 55.3168 11.2554 55.3168 9.77686C55.3168 8.29834 56.3328 7.50424 57.3857 7.50424C58.438 7.50424 59.454 8.33754 59.454 9.80301C59.454 11.2684 58.446 12.1122 57.3857 12.1122Z" fill="black"/>
<path d="M71.2071 12.8776H73.3253V4.15796H71.2071V7.57476H67.9111V4.15796H65.793V12.8776H67.9111V9.28836H71.2071V12.8776Z" fill="#585BD5"/>
<path d="M74.4951 8.50478C74.4951 11.117 76.3031 12.9456 78.8674 12.9456C80.9357 12.9456 82.4964 11.7909 82.9942 9.90231H80.665C80.5062 10.2491 80.2477 10.5407 79.9228 10.7398C79.5979 10.9389 79.2213 11.0365 78.841 11.0203C77.5382 11.0203 76.6471 10.0512 76.6471 8.51001C76.6471 6.96878 77.5382 6.00225 78.841 6.00225C79.2213 5.9857 79.5979 6.08324 79.9228 6.28238C80.2477 6.48151 80.5062 6.77327 80.665 7.12028H82.9942C82.4964 5.23167 80.9357 4.06398 78.8674 4.06398C76.3031 4.05875 74.4951 5.89776 74.4951 8.50478Z" fill="#585BD5"/>
<path d="M84.292 12.8776H86.4101V7.63482L88.3671 12.8776H90.0791L92.0225 7.64793V12.8776H94.1406V4.15796H91.6526L89.2348 10.1948L86.796 4.15796H84.292V12.8776Z" fill="#585BD5"/>
<defs>
<linearGradient id="paint0_linear_4445_35894" x1="11.6959" y1="16.7196" x2="12.7941" y2="4.03509" gradientUnits="userSpaceOnUse">
<stop stop-color="#F55B74"/>
<stop offset="1" stop-color="#F55972"/>
</linearGradient>
<linearGradient id="paint1_linear_4445_35894" x1="426.797" y1="-783.985" x2="359.923" y2="-764.88" gradientUnits="userSpaceOnUse">
<stop stop-color="#F55B74"/>
<stop offset="1" stop-color="#F55972"/>
</linearGradient>
</defs>
</svg>
